# xmcd
#
# Track frame offsets:
#	150
#	12545
#	24627
#	36190
#	46047
#	57107
#	68430
#	79877
#	94282
#	103342
#	116377
#	137490
#	155257
#	168257
#	179697
#	198970
#	213985
#	230005
#	241630
#	254755
#
# Disc length: 3600 seconds
#
# Revision: 0
# Processed by: cddbd v1.5.2PL0 Copyright (c) Steve Scherf et al.
# Submitted via: audiograbber 1.83.01
#
DISCID=0c0e0e14
DTITLE=Marty Robbins - A Lifetime Of Song
DYEAR=1900
DGENRE=Oldies
TTITLE0=Tomorrow You'll Be Gone
TTITLE1=I'll Go On Alone
TTITLE2=That's All Right
TTITLE3=Knee Deep In The Blues
TTITLE4=Singing The Blues
TTITLE5=A White Sport Coat
TTITLE6=The Story Of My Life
TTITLE7=Don't Worry
TTITLE8=Ruby Ann
TTITLE9=Devil Woman
TTITLE10=El Paso
TTITLE11=Big Iron
TTITLE12=The Hanging Tree
TTITLE13=Ribbon Of Darkness
TTITLE14=El Paso City
TTITLE15=I Walk Alone
TTITLE16=My Woman, My Woman, My Wife
TTITLE17=Among My Souvenirs
TTITLE18=Return To Me
TTITLE19=Some Memories Just Won't Die
EXTD=
EXTT0=
EXTT1=
EXTT2=
EXTT3=
EXTT4=
EXTT5=
EXTT6=
EXTT7=
EXTT8=
EXTT9=
EXTT10=
EXTT11=
EXTT12=
EXTT13=
EXTT14=
EXTT15=
EXTT16=
EXTT17=
EXTT18=
EXTT19=
PLAYORDER=
